# Blender v2.82 (sub 7) OBJ File: ''
# www.blender.org
o 3d_arrow_nice.002
v -0.795595 -0.991225 0.330000
v -0.795595 -0.991225 -0.000000
v -0.722082 -1.001729 -0.000000
v -0.860406 -0.961836 0.330000
v -0.860406 -0.961836 -0.000000
v -0.922849 -0.907927 0.330000
v -0.922849 -0.907927 -0.000000
v -0.968644 -0.837700 0.330000
v -0.968644 -0.837700 -0.000000
v -0.995204 -0.756213 0.330000
v -0.995204 -0.756213 -0.000000
v -0.999943 -0.668519 0.330000
v -0.999943 -0.668519 -0.000000
v -0.988535 -0.604881 0.330000
v -0.988535 -0.604881 -0.000000
v -0.963731 -0.542498 0.330000
v -0.963731 -0.542498 -0.000000
v -0.241652 0.845086 0.330000
v -0.241652 0.845086 0.000000
v -0.188064 0.919335 0.330000
v -0.188064 0.919335 0.000000
v -0.130987 0.963736 0.330000
v -0.130987 0.963736 0.000000
v -0.056123 0.993090 0.330000
v -0.056123 0.993090 0.000000
v 0.022561 0.998271 0.330000
v 0.022561 0.998271 0.000000
v 0.099716 0.979277 0.330000
v 0.099716 0.979277 0.000000
v 0.169996 0.936109 0.330000
v 0.169996 0.936109 0.000000
v 0.205012 0.900588 0.330000
v 0.205012 0.900588 0.000000
v 0.241650 0.845086 0.330000
v 0.241650 0.845086 0.000000
v 0.963731 -0.542498 0.330000
v 0.963731 -0.542498 -0.000000
v 0.994652 -0.630289 0.330000
v 0.994652 -0.630289 -0.000000
v 1.000057 -0.719095 0.330000
v 1.000057 -0.719095 -0.000000
v 0.982532 -0.803861 0.330000
v 0.982532 -0.803861 -0.000000
v 0.944664 -0.879533 0.330000
v 0.944664 -0.879533 -0.000000
v 0.889039 -0.941054 0.330000
v 0.889039 -0.941054 -0.000000
v 0.829189 -0.978693 0.330000
v 0.829189 -0.978693 -0.000000
v 0.783901 -0.994374 0.330000
v 0.783901 -0.994374 -0.000000
v 0.722079 -1.001729 0.330000
v 0.722079 -1.001729 -0.000000
v 0.032736 -0.825994 0.330000
v 0.032736 -0.825994 -0.000000
v -0.722082 -1.001729 0.330000
vt 0.144948 0.011487
vt 0.144948 0.096438
vt 0.133765 0.096438
vt 0.155619 0.011487
vt 0.155619 0.096438
vt 0.167901 0.011487
vt 0.167901 0.096438
vt 0.180285 0.011487
vt 0.180285 0.096438
vt 0.192871 0.011487
vt 0.192871 0.096438
vt 0.205732 0.011487
vt 0.205732 0.096438
vt 0.215208 0.011487
vt 0.215208 0.096438
vt 0.225079 0.011487
vt 0.225079 0.096438
vt 0.455566 0.011487
vt 0.455566 0.096438
vt 0.469109 0.011487
vt 0.469109 0.096438
vt 0.479890 0.011487
vt 0.479890 0.096438
vt 0.491961 0.011487
vt 0.491961 0.096438
vt 0.503841 0.011487
vt 0.503841 0.096438
vt 0.515794 0.011487
vt 0.515794 0.096438
vt 0.528127 0.011487
vt 0.528127 0.096438
vt 0.535536 0.011487
vt 0.535536 0.096438
vt 0.545361 0.011487
vt 0.545361 0.096438
vt 0.775848 0.011487
vt 0.775848 0.096438
vt 0.789522 0.011487
vt 0.789522 0.096438
vt 0.802552 0.011487
vt 0.802552 0.096438
vt 0.815243 0.011487
vt 0.815243 0.096438
vt 0.827707 0.011487
vt 0.827707 0.096438
vt 0.840011 0.011487
vt 0.840011 0.096438
vt 0.850580 0.011487
vt 0.850580 0.096438
vt 0.857779 0.011487
vt 0.857779 0.096438
vt 0.867157 0.011487
vt 0.867157 0.096438
vt 0.974162 0.011487
vt 0.974162 0.096438
vt 0.133785 0.011382
vt 0.133785 0.096334
vt 0.017180 0.096334
vt 0.070541 0.135411
vt 0.090919 0.125978
vt 0.114032 0.122606
vt 0.050909 0.152714
vt 0.036510 0.175255
vt 0.028160 0.201411
vt 0.026670 0.229558
vt 0.030256 0.249985
vt 0.038055 0.270008
vt 0.351353 0.179013
vt 0.265083 0.715388
vt 0.405518 0.733203
vt 0.281931 0.739220
vt 0.417037 0.715388
vt 0.394509 0.744604
vt 0.299877 0.753472
vt 0.372412 0.758460
vt 0.323415 0.762894
vt 0.348154 0.764557
vt 0.644066 0.270008
vt 0.568089 0.122606
vt 0.653788 0.241829
vt 0.655487 0.213325
vt 0.649977 0.186117
vt 0.638071 0.161828
vt 0.620582 0.142081
vt 0.601765 0.130000
vt 0.587526 0.124967
vt 0.133765 0.011487
vt 0.017180 0.011382
vn -0.1414 -0.9899 0.0000
vn -0.4130 -0.9107 0.0000
vn -0.6535 -0.7569 -0.0000
vn -0.8376 -0.5462 -0.0000
vn -0.9508 -0.3099 0.0000
vn -0.9985 -0.0540 -0.0000
vn -0.9843 0.1765 0.0000
vn -0.9292 0.3695 0.0000
vn -0.8871 0.4616 0.0000
vn -0.8109 0.5852 0.0000
vn -0.6140 0.7893 0.0000
vn -0.3650 0.9310 0.0000
vn -0.0657 0.9978 0.0000
vn 0.2390 0.9710 0.0000
vn 0.5234 0.8521 0.0000
vn 0.7122 0.7020 0.0000
vn 0.8346 0.5509 0.0000
vn 0.8871 0.4616 0.0000
vn 0.9432 0.3322 0.0000
vn 0.9982 0.0608 0.0000
vn 0.9793 -0.2025 -0.0000
vn 0.8943 -0.4475 0.0000
vn 0.7418 -0.6707 -0.0000
vn 0.5324 -0.8465 -0.0000
vn 0.3272 -0.9450 0.0000
vn 0.1181 -0.9930 0.0000
vn -0.2470 -0.9690 0.0000
vn 0.2268 -0.9740 0.0000
vn 0.0000 0.0000 1.0000
g 3d_arrow_nice.002_3d_arrow_nice.002_Mat_1.002
usemtl Mat_1.002
s off
f 1/1/1 2/2/1 3/3/1
f 4/4/2 5/5/2 2/2/2
f 6/6/3 7/7/3 5/5/3
f 8/8/4 9/9/4 7/7/4
f 10/10/5 11/11/5 9/9/5
f 12/12/6 13/13/6 11/11/6
f 14/14/7 15/15/7 13/13/7
f 16/16/8 17/17/8 15/15/8
f 18/18/9 19/19/9 17/17/9
f 20/20/10 21/21/10 19/19/10
f 22/22/11 23/23/11 21/21/11
f 24/24/12 25/25/12 23/23/12
f 26/26/13 27/27/13 25/25/13
f 28/28/14 29/29/14 27/27/14
f 30/30/15 31/31/15 29/29/15
f 32/32/16 33/33/16 31/31/16
f 34/34/17 35/35/17 33/33/17
f 36/36/18 37/37/18 35/35/18
f 38/38/19 39/39/19 37/37/19
f 40/40/20 41/41/20 39/39/20
f 42/42/21 43/43/21 41/41/21
f 44/44/22 45/45/22 43/43/22
f 46/46/23 47/47/23 45/45/23
f 48/48/24 49/49/24 47/47/24
f 50/50/25 51/51/25 49/49/25
f 52/52/26 53/53/26 51/51/26
f 54/54/27 55/55/27 53/53/27
f 56/56/28 3/57/28 55/58/28
f 4/59/29 1/60/29 56/61/29
f 6/62/29 4/59/29 56/61/29
f 8/63/29 6/62/29 56/61/29
f 10/64/29 8/63/29 56/61/29
f 12/65/29 10/64/29 56/61/29
f 14/66/29 12/65/29 56/61/29
f 16/67/29 14/66/29 56/61/29
f 54/68/29 16/67/29 56/61/29
f 54/68/29 18/69/29 16/67/29
f 32/70/29 20/71/29 18/69/29
f 34/72/29 32/70/29 18/69/29
f 54/68/29 34/72/29 18/69/29
f 30/73/29 22/74/29 20/71/29
f 32/70/29 30/73/29 20/71/29
f 28/75/29 24/76/29 22/74/29
f 30/73/29 28/75/29 22/74/29
f 28/75/29 26/77/29 24/76/29
f 54/68/29 36/78/29 34/72/29
f 52/79/29 38/80/29 36/78/29
f 54/68/29 52/79/29 36/78/29
f 52/79/29 40/81/29 38/80/29
f 52/79/29 42/82/29 40/81/29
f 52/79/29 44/83/29 42/82/29
f 52/79/29 46/84/29 44/83/29
f 52/79/29 48/85/29 46/84/29
f 52/79/29 50/86/29 48/85/29
f 56/87/1 1/1/1 3/3/1
f 1/1/2 4/4/2 2/2/2
f 4/4/3 6/6/3 5/5/3
f 6/6/4 8/8/4 7/7/4
f 8/8/5 10/10/5 9/9/5
f 10/10/6 12/12/6 11/11/6
f 12/12/7 14/14/7 13/13/7
f 14/14/8 16/16/8 15/15/8
f 16/16/9 18/18/9 17/17/9
f 18/18/10 20/20/10 19/19/10
f 20/20/11 22/22/11 21/21/11
f 22/22/12 24/24/12 23/23/12
f 24/24/13 26/26/13 25/25/13
f 26/26/14 28/28/14 27/27/14
f 28/28/15 30/30/15 29/29/15
f 30/30/16 32/32/16 31/31/16
f 32/32/17 34/34/17 33/33/17
f 34/34/18 36/36/18 35/35/18
f 36/36/19 38/38/19 37/37/19
f 38/38/20 40/40/20 39/39/20
f 40/40/21 42/42/21 41/41/21
f 42/42/22 44/44/22 43/43/22
f 44/44/23 46/46/23 45/45/23
f 46/46/24 48/48/24 47/47/24
f 48/48/25 50/50/25 49/49/25
f 50/50/26 52/52/26 51/51/26
f 52/52/27 54/54/27 53/53/27
f 54/88/28 56/56/28 55/58/28
