<svg width="120" height="120" viewBox="0 0 120 120" fill="none" xmlns="http://www.w3.org/2000/svg">
<circle cx="60" cy="60" r="60" fill="#0088FF"/>
<path d="M70 41C70 29.9543 61.0456 21 50 21C38.9543 21 30 29.9543 30 41C30 52.0456 38.9543 61 50 61C61.0456 61 70 52.0456 70 41Z" stroke="white" stroke-width="8" stroke-linecap="round" stroke-linejoin="round"/>
<path d="M78 89C78 73.536 65.464 61 50 61C34.536 61 22 73.536 22 89" stroke="white" stroke-width="8" stroke-linecap="round" stroke-linejoin="round"/>
<path d="M102 52.3752V44.25C95.7144 44.25 91 41 91 41C91 41 86.2856 44.25 80 44.25V52.3752C80 63.75 91 67 91 67C91 67 102 63.75 102 52.3752Z" stroke="white" stroke-width="8" stroke-linecap="round" stroke-linejoin="round"/>
</svg>
