<svg width="391" height="519" viewBox="0 0 391 519" fill="none" xmlns="http://www.w3.org/2000/svg">
<path fill-rule="evenodd" clip-rule="evenodd" d="M195.218 0C303.034 0 390.436 88.5937 390.436 197.88C390.436 211.22 389.134 224.251 386.651 236.851C369.421 368.465 196.244 518.257 196.244 518.257C196.244 518.257 48.8689 390.782 12.4994 267.7C4.42054 245.988 0 222.457 0 197.88C0 88.5937 87.4018 0 195.218 0Z" fill="#0088FF"/>
<path d="M363 208.709C363 310.169 289.784 420 197 420C104.216 420 27 310.169 27 208.709C27 107.25 102.216 25 195 25C287.784 25 363 107.25 363 208.709Z" fill="white"/>
<g id="arrow-direction" transform="rotate(0, 195, 153)">
<path fill-rule="evenodd" clip-rule="evenodd" d="M144.462 221.169C129.788 227.032 115.846 211.078 122.877 196.468L179.463 78.8902C185.81 65.7033 203.923 65.7033 210.269 78.8902L266.855 196.468C273.886 211.078 259.944 227.032 245.27 221.169L203.109 204.321C197.803 202.201 191.929 202.201 186.623 204.321L144.462 221.169Z" fill="#3478F5"/>
<path fill-rule="evenodd" clip-rule="evenodd" d="M133.117 201.396L189.703 83.8183C191.92 79.2126 197.813 79.2126 200.029 83.8183L256.615 201.396C257.986 204.245 257.362 207.054 255.645 209.018C253.967 210.939 251.791 211.537 249.487 210.616L207.326 193.769C199.313 190.567 190.42 190.567 182.407 193.769L140.246 210.616C137.941 211.537 135.765 210.939 134.087 209.018C132.37 207.054 131.746 204.245 133.117 201.396Z" fill="white"/>
</g>
<path d="M92.997 269.411C96.0209 257.046 107.373 249 120.103 249H274.897C287.627 249 298.979 257.046 302.003 269.411C308.598 296.379 315.998 343.635 296.143 370.838C271.841 404.133 241.421 420 197.5 420C153.579 420 123.159 404.133 98.8567 370.838C79.0024 343.635 86.4019 296.379 92.997 269.411Z" fill="white"/>
<text id="speed-text" x="195" y="298" font-family="system-ui, -apple-system, sans-serif" font-weight="900" font-size="44" fill="#3478F5" text-anchor="middle">100KM</text>
<line id="lock-line" opacity="1" x1="116.5" y1="313.5" x2="278.503" y2="313.5" stroke="#3478F5" stroke-width="3" stroke-linecap="round"/>
<path d="M353.229 227.107C357.933 227.72 362.243 224.354 362.56 219.621C364.094 196.756 361.607 173.757 355.202 151.846C347.994 127.186 335.991 104.474 319.998 85.2324C304.004 65.9909 284.389 50.6641 262.467 40.2786C240.544 29.8931 216.821 24.6888 192.885 25.0144C168.95 25.3399 145.355 31.1877 123.681 42.1661C102.008 53.1445 82.7563 69 67.2161 88.6704C51.6759 108.341 40.2061 131.372 33.5749 156.221C27.6866 178.286 25.7343 201.331 27.7948 224.134C28.223 228.873 32.6328 232.141 37.3329 231.399V231.399C41.8881 230.679 45.0122 226.453 44.6102 221.859C42.8303 201.518 44.5999 180.97 49.8517 161.29C55.8142 138.947 66.1276 118.238 80.1008 100.551C94.074 82.8644 111.384 68.6077 130.873 58.7362C150.361 48.8648 171.576 43.6066 193.098 43.3139C214.621 43.0212 235.952 47.7007 255.664 57.039C275.376 66.3773 293.013 80.1587 307.394 97.4601C321.775 114.761 332.568 135.183 339.049 157.357C344.755 176.88 347.004 197.365 345.702 217.74C345.407 222.353 348.646 226.51 353.229 227.107V227.107Z" fill="#7CFF6B" clip-path="url(#battery-clip)"/>
<path d="M353.229 227.107C357.933 227.72 362.243 224.354 362.56 219.621C364.094 196.756 361.607 173.757 355.202 151.846C347.994 127.186 335.991 104.474 319.998 85.2324C304.004 65.9909 284.389 50.6641 262.467 40.2786C240.544 29.8931 216.821 24.6888 192.885 25.0144C168.95 25.3399 145.355 31.1877 123.681 42.1661C102.008 53.1445 82.7563 69 67.2161 88.6704C51.6759 108.341 40.2061 131.372 33.5749 156.221C27.6866 178.286 25.7343 201.331 27.7948 224.134C28.223 228.873 32.6328 232.141 37.3329 231.399V231.399C41.8881 230.679 45.0122 226.453 44.6102 221.859C42.8303 201.518 44.5999 180.97 49.8517 161.29C55.8142 138.947 66.1276 118.238 80.1008 100.551C94.074 82.8644 111.384 68.6077 130.873 58.7362C150.361 48.8648 171.576 43.6066 193.098 43.3139C214.621 43.0212 235.952 47.7007 255.664 57.039C275.376 66.3773 293.013 80.1587 307.394 97.4601C321.775 114.761 332.568 135.183 339.049 157.357C344.755 176.88 347.004 197.365 345.702 217.74C345.407 222.353 348.646 226.51 353.229 227.107V227.107Z" fill="url(#paint0_linear_2_27)" fill-opacity="0.2"/>
<g id="closed-lock" opacity="1">
<path d="M214.706 352.7V343.164C214.706 333.685 207.018 326 197.532 326C188.048 326 180.359 333.685 180.359 343.164V352.7" stroke="#3478F5" stroke-width="7" stroke-linecap="round" stroke-linejoin="round"/>
<path d="M203.254 352.7H191.808C182.897 352.7 178.442 352.7 175.069 354.502C172.407 355.924 170.226 358.104 168.802 360.766C167 364.137 167 368.59 167.001 377.495C167.002 386.4 167.002 390.852 168.805 394.222C170.228 396.883 172.409 399.062 175.072 400.485C178.444 402.286 182.899 402.286 191.808 402.286H203.254C212.165 402.286 216.619 402.286 219.992 400.485C222.654 399.062 224.835 396.882 226.258 394.221C228.061 390.85 228.061 386.398 228.061 377.493C228.061 368.588 228.061 364.136 226.258 360.765C224.835 358.104 222.653 355.924 219.992 354.502C216.619 352.7 212.165 352.7 203.254 352.7Z" stroke="#3478F5" stroke-width="7" stroke-linecap="round"/>
<path d="M197.532 385.122C201.748 385.122 205.165 381.706 205.165 377.493C205.165 373.28 201.748 369.865 197.532 369.865C193.317 369.865 189.9 373.28 189.9 377.493C189.9 381.706 193.317 385.122 197.532 385.122Z" stroke="#3478F5" stroke-width="7"/>
<path d="M197.531 385.122C201.747 385.122 205.164 381.706 205.164 377.493C205.164 373.28 201.747 369.865 197.531 369.865C193.316 369.865 189.898 373.28 189.898 377.493C189.898 381.706 193.316 385.122 197.531 385.122Z" stroke="#3478F5" stroke-width="7"/>
</g>
<g id="open-lock" opacity="0">
<path d="M180.357 352.7V343.164C180.357 333.685 188.046 326 197.531 326C205.009 326 210.439 330.776 212.797 337.443" stroke="#3478F5" stroke-width="7" stroke-linecap="round" stroke-linejoin="round"/>
<path d="M203.254 352.7H191.807C182.896 352.7 178.441 352.7 175.068 354.502C172.405 355.924 170.224 358.104 168.801 360.766C166.999 364.137 166.999 368.59 167 377.495C167.001 386.4 167.001 390.852 168.804 394.222C170.227 396.883 172.408 399.062 175.071 400.485C178.443 402.286 182.897 402.286 191.807 402.286H203.254C212.163 402.286 216.618 402.286 219.99 400.485C222.653 399.062 224.835 396.882 226.257 394.221C228.06 390.85 228.06 386.398 228.06 377.493C228.06 368.588 228.06 364.136 226.257 360.765C224.835 358.104 222.653 355.924 219.99 354.502C216.618 352.7 212.163 352.7 203.254 352.7Z" stroke="#3478F5" stroke-linecap="round" stroke-width="7"/>
</g>
<defs>
<linearGradient id="paint0_linear_2_27" x1="37" y1="183.5" x2="356.5" y2="187" gradientUnits="userSpaceOnUse">
<stop stop-color="#00C853"/>
<stop offset="1" stop-color="#7CFF6B"/>
</linearGradient>
<clipPath id="battery-clip"><path id="battery-clip-path" d="M 195 230 L 195 230 A 300 300 0 1 1 195 230 Z" /></clipPath>
</defs>
</svg>
