<svg width="701" height="874" viewBox="0 0 701 874" fill="none" xmlns="http://www.w3.org/2000/svg">
<g id="Pin Brujula">
<g id="Pin Mapa">
<path id="Pin" fill-rule="evenodd" clip-rule="evenodd" d="M449.5 215C588.4 215 701 327.6 701 466.5C701 483.454 699.322 500.017 696.124 516.031C673.926 683.308 450.822 873.69 450.822 873.69C450.822 873.69 260.958 711.673 214.103 555.239C203.695 527.644 198 497.737 198 466.5C198 327.6 310.6 215 449.5 215Z" fill="#0088FF"/>
<path id="Circulo" d="M653.191 472.595C653.191 360.153 562.038 269 449.595 269C337.153 269 246 360.153 246 472.595C246 585.038 337.153 676.191 449.595 676.191C562.038 676.191 653.191 585.038 653.191 472.595Z" fill="white"/>
</g>
<g id="Brujula">
<path id="Icono de Brujula" d="M531.361 546.013L471.646 522.202H471.645C457.407 516.525 441.593 516.525 427.355 522.202L367.638 546.015L449.5 376.275L531.361 546.013Z" fill="white" stroke="#0083F6" stroke-width="20" stroke-linejoin="round"/>
<g id="Letras Direccion">
<path id="N" d="M461.958 280.453V316H455.22L440.107 291.342V316H433.394V280.453H440.107L455.269 305.136V280.453H461.958Z" fill="#838383"/>
<path id="S" d="M451.997 654.771C451.997 654.088 451.891 653.478 451.68 652.94C451.484 652.387 451.118 651.891 450.581 651.451C450.06 650.995 449.32 650.556 448.359 650.133C447.415 649.693 446.195 649.238 444.697 648.766C443.037 648.245 441.491 647.659 440.059 647.008C438.626 646.357 437.365 645.6 436.274 644.737C435.2 643.875 434.362 642.882 433.76 641.759C433.158 640.619 432.856 639.301 432.856 637.804C432.856 636.339 433.166 635.004 433.784 633.8C434.419 632.595 435.314 631.562 436.47 630.699C437.625 629.82 438.984 629.145 440.547 628.673C442.126 628.201 443.867 627.965 445.771 627.965C448.408 627.965 450.687 628.445 452.607 629.405C454.544 630.366 456.042 631.668 457.1 633.312C458.158 634.955 458.687 636.803 458.687 638.854H451.997C451.997 637.747 451.761 636.77 451.289 635.924C450.833 635.077 450.133 634.41 449.189 633.922C448.262 633.434 447.09 633.189 445.674 633.189C444.307 633.189 443.167 633.393 442.256 633.8C441.361 634.207 440.685 634.76 440.229 635.46C439.79 636.16 439.57 636.941 439.57 637.804C439.57 638.455 439.725 639.041 440.034 639.562C440.343 640.066 440.807 640.546 441.426 641.002C442.044 641.441 442.809 641.856 443.721 642.247C444.648 642.621 445.723 642.996 446.943 643.37C448.896 643.956 450.605 644.607 452.07 645.323C453.551 646.039 454.78 646.853 455.757 647.765C456.75 648.676 457.49 649.701 457.979 650.841C458.483 651.98 458.735 653.274 458.735 654.723C458.735 656.253 458.434 657.62 457.832 658.824C457.23 660.029 456.367 661.054 455.244 661.9C454.121 662.747 452.77 663.39 451.191 663.829C449.629 664.269 447.879 664.488 445.942 664.488C444.217 664.488 442.508 664.26 440.815 663.805C439.139 663.333 437.617 662.633 436.25 661.705C434.883 660.761 433.792 659.573 432.979 658.141C432.165 656.692 431.758 654.999 431.758 653.062H438.496C438.496 654.186 438.675 655.146 439.033 655.943C439.408 656.725 439.928 657.368 440.596 657.872C441.279 658.36 442.077 658.718 442.988 658.946C443.9 659.174 444.884 659.288 445.942 659.288C447.31 659.288 448.433 659.101 449.312 658.727C450.207 658.336 450.874 657.799 451.313 657.115C451.769 656.432 451.997 655.65 451.997 654.771Z" fill="#838383"/>
<path id="E" d="M640.953 476.727V482H622.057V476.727H640.953ZM624.107 446.453V482H617.394V446.453H624.107ZM638.487 461.126V466.277H622.057V461.126H638.487ZM640.88 446.453V451.751H622.057V446.453H640.88Z" fill="#838383"/>
<path id="W" d="M267.134 478.188L274.214 449.453H278.047L278.291 455.508L270.723 485H266.67L267.134 478.188ZM262.666 449.453L268.477 478.091V485H264.058L256.001 449.453H262.666ZM285.64 477.969L291.353 449.453H298.042L289.985 485H285.566L285.64 477.969ZM279.878 449.453L286.958 478.286L287.373 485H283.32L275.776 455.483L276.069 449.453H279.878Z" fill="#838383"/>
</g>
</g>
<g id="Candado">
<circle id="Circulo del Candado" cx="99" cy="355" r="99" fill="#0088FF"/>
<g id="Candado Cerrado">
<path id="Vector" d="M121.107 340.25V327.958C121.107 315.739 111.202 305.833 98.9823 305.833C86.763 305.833 76.8573 315.739 76.8573 327.958V340.25" stroke="white" stroke-width="10" stroke-linecap="round" stroke-linejoin="round"/>
<path id="Vector_2" d="M106.354 340.25H91.6073C80.1277 340.25 74.388 340.25 70.0432 342.572C66.6126 344.406 63.8029 347.216 61.9694 350.647C59.6473 354.992 59.6479 360.732 59.649 372.211C59.65 383.689 59.6505 389.428 61.9729 393.772C63.8066 397.202 66.6162 400.011 70.0464 401.845C74.3908 404.167 80.1296 404.167 91.6073 404.167H106.354C117.833 404.167 123.572 404.167 127.917 401.845C131.347 400.011 134.157 397.201 135.99 393.771C138.313 389.426 138.313 383.687 138.313 372.208C138.313 360.73 138.313 354.991 135.99 350.646C134.157 347.215 131.347 344.406 127.917 342.572C123.572 340.25 117.833 340.25 106.354 340.25Z" stroke="white" stroke-width="10" stroke-linecap="round"/>
<path id="Vector_3" d="M98.9823 382.042C104.413 382.042 108.816 377.639 108.816 372.208C108.816 366.778 104.413 362.375 98.9823 362.375C93.5515 362.375 89.1489 366.778 89.1489 372.208C89.1489 377.639 93.5515 382.042 98.9823 382.042Z" stroke="white" stroke-width="10"/>
</g>
<g id="Candado Abierto">
<path id="Vector_4" d="M98.9808 382.042C104.412 382.042 108.814 377.639 108.814 372.208C108.814 366.778 104.412 362.375 98.9808 362.375C93.55 362.375 89.1475 366.778 89.1475 372.208C89.1475 377.639 93.55 382.042 98.9808 382.042Z" stroke="white" stroke-width="10"/>
<path id="Vector_5" d="M76.8558 340.25V327.958C76.8558 315.739 86.7615 305.833 98.9809 305.833C108.614 305.833 115.61 311.99 118.648 320.583" stroke="white" stroke-width="10" stroke-linecap="round" stroke-linejoin="round"/>
<path id="Vector_6" d="M106.353 340.25H91.6058C80.1263 340.25 74.3865 340.25 70.0417 342.572C66.6112 344.406 63.8015 347.216 61.968 350.647C59.6459 354.992 59.6465 360.732 59.6475 372.211C59.6486 383.689 59.6491 389.428 61.9715 393.772C63.8051 397.202 66.6148 400.011 70.045 401.845C74.3894 404.167 80.1282 404.167 91.6058 404.167H106.353C117.831 404.167 123.571 404.167 127.915 401.845C131.346 400.011 134.156 397.201 135.989 393.771C138.311 389.426 138.311 383.687 138.311 372.208C138.311 360.73 138.311 354.991 135.989 350.646C134.156 347.215 131.346 344.406 127.915 342.572C123.571 340.25 117.831 340.25 106.353 340.25Z" stroke="white" stroke-width="10" stroke-linecap="round"/>
</g>
</g>
<g id="Velocidad">
<circle id="Circulo de la velocidad" cx="246" cy="128" r="128" fill="#0088FF"/>
<path id="KM/H" d="M194.166 150.453V186H187.452V150.453H194.166ZM215.504 150.453L201.246 167.787L193.092 176.503L191.896 169.984L197.56 162.636L207.276 150.453H215.504ZM208.033 186L196.974 169.35L201.783 165.004L216.017 186H208.033ZM222.071 150.453H227.882L237.599 177.211L247.291 150.453H253.126L239.918 186H235.255L222.071 150.453ZM219.142 150.453H224.83L225.855 175.038V186H219.142V150.453ZM250.343 150.453H256.056V186H249.342V175.038L250.343 150.453ZM277.687 150.453L264.259 189.052H259.352L272.779 150.453H277.687ZM305.519 165.126V170.399H286.817V165.126H305.519ZM288.648 150.453V186H281.935V150.453H288.648ZM310.499 150.453V186H303.785V150.453H310.499Z" fill="white"/>
<path id="500" d="M181.418 108.285L171.116 105.795L175.071 69.9062H214.182V80.5996H185.764L183.909 97.2012C184.918 96.5827 186.383 95.9642 188.303 95.3457C190.256 94.6947 192.454 94.3691 194.895 94.3691C198.28 94.3691 201.308 94.9225 203.977 96.0293C206.646 97.1035 208.909 98.666 210.764 100.717C212.652 102.768 214.068 105.274 215.012 108.236C215.989 111.166 216.477 114.486 216.477 118.197C216.477 121.452 215.989 124.512 215.012 127.377C214.068 130.209 212.62 132.732 210.667 134.945C208.713 137.126 206.256 138.852 203.293 140.121C200.331 141.358 196.848 141.977 192.844 141.977C189.817 141.977 186.904 141.537 184.104 140.658C181.337 139.747 178.847 138.428 176.633 136.703C174.42 134.945 172.646 132.797 171.311 130.258C170.009 127.719 169.293 124.805 169.163 121.518H181.907C182.135 123.699 182.721 125.554 183.665 127.084C184.609 128.614 185.846 129.786 187.376 130.6C188.938 131.413 190.745 131.82 192.795 131.82C194.651 131.82 196.246 131.479 197.581 130.795C198.948 130.079 200.071 129.086 200.95 127.816C201.829 126.547 202.48 125.049 202.903 123.324C203.326 121.599 203.538 119.711 203.538 117.66C203.538 115.674 203.293 113.868 202.805 112.24C202.317 110.58 201.568 109.148 200.559 107.943C199.55 106.739 198.28 105.811 196.751 105.16C195.253 104.509 193.495 104.184 191.477 104.184C188.775 104.184 186.692 104.59 185.227 105.404C183.795 106.218 182.525 107.178 181.418 108.285ZM272.825 99.3496V111.312C272.825 116.781 272.271 121.452 271.165 125.326C270.058 129.2 268.463 132.374 266.379 134.848C264.296 137.289 261.806 139.096 258.909 140.268C256.012 141.407 252.789 141.977 249.241 141.977C246.409 141.977 243.772 141.618 241.331 140.902C238.889 140.154 236.692 139.014 234.739 137.484C232.818 135.922 231.158 133.936 229.758 131.527C228.391 129.118 227.333 126.238 226.584 122.885C225.868 119.532 225.51 115.674 225.51 111.312V99.3496C225.51 93.8809 226.064 89.2259 227.17 85.3848C228.31 81.5436 229.921 78.4023 232.004 75.9609C234.088 73.5195 236.578 71.7454 239.475 70.6387C242.372 69.4993 245.595 68.9297 249.143 68.9297C252.008 68.9297 254.644 69.2878 257.053 70.0039C259.495 70.7201 261.676 71.8431 263.596 73.373C265.549 74.8704 267.209 76.8236 268.577 79.2324C269.944 81.6087 270.986 84.4733 271.702 87.8262C272.45 91.1465 272.825 94.9876 272.825 99.3496ZM259.934 113.07V97.543C259.934 94.8086 259.771 92.4323 259.446 90.4141C259.153 88.3633 258.713 86.6217 258.127 85.1895C257.542 83.7572 256.809 82.6016 255.93 81.7227C255.051 80.8112 254.042 80.1439 252.903 79.7207C251.764 79.2975 250.51 79.0859 249.143 79.0859C247.45 79.0859 245.937 79.4277 244.602 80.1113C243.267 80.7624 242.144 81.804 241.233 83.2363C240.321 84.6686 239.622 86.5729 239.133 88.9492C238.678 91.293 238.45 94.1576 238.45 97.543V113.07C238.45 115.805 238.596 118.197 238.889 120.248C239.215 122.299 239.67 124.057 240.256 125.521C240.875 126.986 241.607 128.191 242.454 129.135C243.333 130.046 244.342 130.73 245.481 131.186C246.62 131.609 247.874 131.82 249.241 131.82C250.966 131.82 252.48 131.479 253.782 130.795C255.116 130.111 256.239 129.037 257.151 127.572C258.062 126.075 258.746 124.138 259.202 121.762C259.69 119.353 259.934 116.456 259.934 113.07ZM329.954 99.3496V111.312C329.954 116.781 329.4 121.452 328.293 125.326C327.187 129.2 325.592 132.374 323.508 134.848C321.425 137.289 318.935 139.096 316.038 140.268C313.14 141.407 309.918 141.977 306.37 141.977C303.538 141.977 300.901 141.618 298.46 140.902C296.018 140.154 293.821 139.014 291.868 137.484C289.947 135.922 288.287 133.936 286.887 131.527C285.52 129.118 284.462 126.238 283.713 122.885C282.997 119.532 282.639 115.674 282.639 111.312V99.3496C282.639 93.8809 283.193 89.2259 284.299 85.3848C285.439 81.5436 287.05 78.4023 289.133 75.9609C291.217 73.5195 293.707 71.7454 296.604 70.6387C299.501 69.4993 302.724 68.9297 306.272 68.9297C309.137 68.9297 311.773 69.2878 314.182 70.0039C316.624 70.7201 318.805 71.8431 320.725 73.373C322.678 74.8704 324.338 76.8236 325.706 79.2324C327.073 81.6087 328.114 84.4733 328.831 87.8262C329.579 91.1465 329.954 94.9876 329.954 99.3496ZM317.063 113.07V97.543C317.063 94.8086 316.9 92.4323 316.575 90.4141C316.282 88.3633 315.842 86.6217 315.256 85.1895C314.67 83.7572 313.938 82.6016 313.059 81.7227C312.18 80.8112 311.171 80.1439 310.032 79.7207C308.892 79.2975 307.639 79.0859 306.272 79.0859C304.579 79.0859 303.066 79.4277 301.731 80.1113C300.396 80.7624 299.273 81.804 298.362 83.2363C297.45 84.6686 296.751 86.5729 296.262 88.9492C295.807 91.293 295.579 94.1576 295.579 97.543V113.07C295.579 115.805 295.725 118.197 296.018 120.248C296.344 122.299 296.799 124.057 297.385 125.521C298.004 126.986 298.736 128.191 299.583 129.135C300.461 130.046 301.471 130.73 302.61 131.186C303.749 131.609 305.002 131.82 306.37 131.82C308.095 131.82 309.609 131.479 310.911 130.795C312.245 130.111 313.368 129.037 314.28 127.572C315.191 126.075 315.875 124.138 316.331 121.762C316.819 119.353 317.063 116.456 317.063 113.07Z" fill="white"/>
</g>
<g id="Bateria">
<circle id="Circulo de la bateria" cx="509.5" cy="117.5" r="94.5" fill="#0088FF"/>
<path id="100%" d="M458.412 94.6621V141H450.001V104.469L438.861 108.151V101.359L457.459 94.6621H458.412ZM504.559 113.927V121.703C504.559 125.258 504.199 128.294 503.48 130.812C502.761 133.33 501.724 135.393 500.37 137.001C499.015 138.588 497.397 139.762 495.514 140.524C493.631 141.264 491.536 141.635 489.23 141.635C487.389 141.635 485.675 141.402 484.088 140.937C482.501 140.45 481.073 139.709 479.803 138.715C478.555 137.699 477.476 136.409 476.566 134.843C475.677 133.277 474.99 131.404 474.503 129.225C474.037 127.046 473.805 124.538 473.805 121.703V113.927C473.805 110.373 474.164 107.347 474.884 104.85C475.624 102.353 476.672 100.312 478.026 98.7246C479.38 97.1377 480.999 95.9845 482.882 95.2651C484.765 94.5246 486.86 94.1543 489.166 94.1543C491.028 94.1543 492.742 94.387 494.308 94.8525C495.895 95.318 497.312 96.048 498.561 97.0425C499.83 98.0158 500.909 99.2853 501.798 100.851C502.687 102.396 503.364 104.258 503.829 106.437C504.316 108.595 504.559 111.092 504.559 113.927ZM496.18 122.846V112.753C496.18 110.976 496.074 109.431 495.863 108.119C495.672 106.786 495.387 105.654 495.006 104.723C494.625 103.792 494.149 103.041 493.578 102.47C493.006 101.877 492.35 101.444 491.61 101.168C490.869 100.893 490.055 100.756 489.166 100.756C488.066 100.756 487.082 100.978 486.214 101.422C485.347 101.846 484.617 102.523 484.024 103.454C483.432 104.385 482.977 105.622 482.66 107.167C482.363 108.69 482.215 110.552 482.215 112.753V122.846C482.215 124.623 482.311 126.178 482.501 127.511C482.713 128.844 483.009 129.987 483.39 130.939C483.792 131.891 484.268 132.674 484.818 133.288C485.389 133.88 486.045 134.324 486.786 134.621C487.526 134.896 488.341 135.033 489.23 135.033C490.351 135.033 491.335 134.811 492.181 134.367C493.049 133.922 493.779 133.224 494.371 132.272C494.964 131.299 495.408 130.04 495.704 128.495C496.022 126.929 496.18 125.046 496.18 122.846ZM541.693 113.927V121.703C541.693 125.258 541.333 128.294 540.614 130.812C539.894 133.33 538.858 135.393 537.503 137.001C536.149 138.588 534.531 139.762 532.647 140.524C530.764 141.264 528.67 141.635 526.363 141.635C524.522 141.635 522.809 141.402 521.222 140.937C519.635 140.45 518.207 139.709 516.937 138.715C515.689 137.699 514.61 136.409 513.7 134.843C512.811 133.277 512.123 131.404 511.637 129.225C511.171 127.046 510.938 124.538 510.938 121.703V113.927C510.938 110.373 511.298 107.347 512.018 104.85C512.758 102.353 513.806 100.312 515.16 98.7246C516.514 97.1377 518.133 95.9845 520.016 95.2651C521.899 94.5246 523.994 94.1543 526.3 94.1543C528.162 94.1543 529.876 94.387 531.441 94.8525C533.028 95.318 534.446 96.048 535.694 97.0425C536.964 98.0158 538.043 99.2853 538.932 100.851C539.82 102.396 540.497 104.258 540.963 106.437C541.45 108.595 541.693 111.092 541.693 113.927ZM533.314 122.846V112.753C533.314 110.976 533.208 109.431 532.997 108.119C532.806 106.786 532.521 105.654 532.14 104.723C531.759 103.792 531.283 103.041 530.711 102.47C530.14 101.877 529.484 101.444 528.744 101.168C528.003 100.893 527.188 100.756 526.3 100.756C525.2 100.756 524.216 100.978 523.348 101.422C522.481 101.846 521.751 102.523 521.158 103.454C520.566 104.385 520.111 105.622 519.793 107.167C519.497 108.69 519.349 110.552 519.349 112.753V122.846C519.349 124.623 519.444 126.178 519.635 127.511C519.846 128.844 520.143 129.987 520.523 130.939C520.925 131.891 521.402 132.674 521.952 133.288C522.523 133.88 523.179 134.324 523.919 134.621C524.66 134.896 525.475 135.033 526.363 135.033C527.485 135.033 528.469 134.811 529.315 134.367C530.182 133.922 530.912 133.224 531.505 132.272C532.097 131.299 532.542 130.04 532.838 128.495C533.155 126.929 533.314 125.046 533.314 122.846ZM548.009 106.12V103.676C548.009 101.92 548.39 100.322 549.151 98.8833C549.913 97.4445 551.024 96.2913 552.484 95.4238C553.965 94.5563 555.764 94.1226 557.879 94.1226C560.038 94.1226 561.847 94.5563 563.307 95.4238C564.788 96.2913 565.899 97.4445 566.639 98.8833C567.401 100.322 567.782 101.92 567.782 103.676V106.12C567.782 107.833 567.401 109.41 566.639 110.849C565.899 112.287 564.798 113.441 563.338 114.308C561.878 115.176 560.08 115.609 557.943 115.609C555.806 115.609 553.997 115.176 552.516 114.308C551.035 113.441 549.913 112.287 549.151 110.849C548.39 109.41 548.009 107.833 548.009 106.12ZM553.69 103.676V106.12C553.69 106.924 553.838 107.685 554.134 108.405C554.452 109.103 554.928 109.674 555.563 110.119C556.197 110.563 556.991 110.785 557.943 110.785C558.895 110.785 559.667 110.563 560.26 110.119C560.873 109.674 561.328 109.103 561.625 108.405C561.942 107.685 562.101 106.924 562.101 106.12V103.676C562.101 102.851 561.942 102.078 561.625 101.359C561.328 100.639 560.863 100.058 560.228 99.6133C559.614 99.1689 558.832 98.9468 557.879 98.9468C556.948 98.9468 556.166 99.1689 555.531 99.6133C554.917 100.058 554.452 100.639 554.134 101.359C553.838 102.078 553.69 102.851 553.69 103.676ZM570.194 132.145V129.669C570.194 127.934 570.575 126.347 571.336 124.909C572.119 123.47 573.251 122.317 574.732 121.449C576.214 120.582 578.012 120.148 580.128 120.148C582.286 120.148 584.095 120.582 585.555 121.449C587.015 122.317 588.115 123.47 588.856 124.909C589.618 126.347 589.999 127.934 589.999 129.669V132.145C589.999 133.88 589.618 135.467 588.856 136.906C588.115 138.323 587.015 139.466 585.555 140.333C584.116 141.201 582.328 141.635 580.191 141.635C578.054 141.635 576.235 141.201 574.732 140.333C573.251 139.466 572.119 138.313 571.336 136.874C570.575 135.435 570.194 133.859 570.194 132.145ZM575.907 129.669V132.113C575.907 132.938 576.076 133.711 576.415 134.43C576.753 135.128 577.24 135.7 577.875 136.144C578.53 136.588 579.292 136.811 580.16 136.811C581.218 136.811 582.053 136.588 582.667 136.144C583.281 135.7 583.714 135.128 583.968 134.43C584.222 133.711 584.349 132.938 584.349 132.113V129.669C584.349 128.844 584.19 128.083 583.873 127.384C583.556 126.665 583.09 126.083 582.477 125.639C581.863 125.194 581.07 124.972 580.096 124.972C579.165 124.972 578.382 125.194 577.748 125.639C577.134 126.083 576.668 126.665 576.351 127.384C576.055 128.083 575.907 128.844 575.907 129.669ZM582.191 101.391L559.625 137.509L555.467 135.192L578.033 99.0737L582.191 101.391Z" fill="white"/>
</g>
</g>
</svg>
