<svg width="782" height="727" viewBox="0 0 782 727" fill="none" xmlns="http://www.w3.org/2000/svg">
<g id="Pin Brujula">
<g id="Pin Mapa">
<path id="Pin" fill-rule="evenodd" clip-rule="evenodd" d="M460.5 68C599.4 68 712 180.6 712 319.5C712 336.454 710.322 353.017 707.124 369.031C684.926 536.308 461.822 726.69 461.822 726.69C461.822 726.69 271.958 564.673 225.103 408.239C214.695 380.644 209 350.737 209 319.5C209 180.6 321.6 68 460.5 68Z" fill="#0088FF"/>
<ellipse id="Ellipse 41" cx="456.5" cy="124" rx="199.5" ry="124" fill="#0088FF"/>
<path id="Circulo" d="M664.191 323.595C664.191 211.153 573.038 120 460.595 120C348.153 120 257 211.153 257 323.595C257 436.038 348.153 527.191 460.595 527.191C573.038 527.191 664.191 436.038 664.191 323.595Z" fill="white"/>
</g>
<g id="Brujula">
<path id="Icono de Brujula" d="M542.361 397.013L482.646 373.202H482.645C468.407 367.525 452.593 367.525 438.355 373.202L378.638 397.015L460.5 227.275L542.361 397.013Z" fill="white" stroke="#0083F6" stroke-width="20" stroke-linejoin="round"/>
<g id="Letras Direccion">
<path id="N" d="M472.958 131.453V167H466.22L451.107 142.342V167H444.394V131.453H451.107L466.269 156.136V131.453H472.958Z" fill="#838383"/>
<path id="S" d="M462.997 505.771C462.997 505.088 462.891 504.478 462.68 503.94C462.484 503.387 462.118 502.891 461.581 502.451C461.06 501.995 460.32 501.556 459.359 501.133C458.415 500.693 457.195 500.238 455.697 499.766C454.037 499.245 452.491 498.659 451.059 498.008C449.626 497.357 448.365 496.6 447.274 495.737C446.2 494.875 445.362 493.882 444.76 492.759C444.158 491.619 443.856 490.301 443.856 488.804C443.856 487.339 444.166 486.004 444.784 484.8C445.419 483.595 446.314 482.562 447.47 481.699C448.625 480.82 449.984 480.145 451.547 479.673C453.126 479.201 454.867 478.965 456.771 478.965C459.408 478.965 461.687 479.445 463.607 480.405C465.544 481.366 467.042 482.668 468.1 484.312C469.158 485.955 469.687 487.803 469.687 489.854H462.997C462.997 488.747 462.761 487.77 462.289 486.924C461.833 486.077 461.133 485.41 460.189 484.922C459.262 484.434 458.09 484.189 456.674 484.189C455.307 484.189 454.167 484.393 453.256 484.8C452.361 485.207 451.685 485.76 451.229 486.46C450.79 487.16 450.57 487.941 450.57 488.804C450.57 489.455 450.725 490.041 451.034 490.562C451.343 491.066 451.807 491.546 452.426 492.002C453.044 492.441 453.809 492.856 454.721 493.247C455.648 493.621 456.723 493.996 457.943 494.37C459.896 494.956 461.605 495.607 463.07 496.323C464.551 497.039 465.78 497.853 466.757 498.765C467.75 499.676 468.49 500.701 468.979 501.841C469.483 502.98 469.735 504.274 469.735 505.723C469.735 507.253 469.434 508.62 468.832 509.824C468.23 511.029 467.367 512.054 466.244 512.9C465.121 513.747 463.77 514.39 462.191 514.829C460.629 515.269 458.879 515.488 456.942 515.488C455.217 515.488 453.508 515.26 451.815 514.805C450.139 514.333 448.617 513.633 447.25 512.705C445.883 511.761 444.792 510.573 443.979 509.141C443.165 507.692 442.758 505.999 442.758 504.062H449.496C449.496 505.186 449.675 506.146 450.033 506.943C450.408 507.725 450.928 508.368 451.596 508.872C452.279 509.36 453.077 509.718 453.988 509.946C454.9 510.174 455.884 510.288 456.942 510.288C458.31 510.288 459.433 510.101 460.312 509.727C461.207 509.336 461.874 508.799 462.313 508.115C462.769 507.432 462.997 506.65 462.997 505.771Z" fill="#838383"/>
<path id="E" d="M651.953 327.727V333H633.057V327.727H651.953ZM635.107 297.453V333H628.394V297.453H635.107ZM649.487 312.126V317.277H633.057V312.126H649.487ZM651.88 297.453V302.751H633.057V297.453H651.88Z" fill="#838383"/>
<path id="W" d="M278.134 329.188L285.214 300.453H289.047L289.291 306.508L281.723 336H277.67L278.134 329.188ZM273.666 300.453L279.477 329.091V336H275.058L267.001 300.453H273.666ZM296.64 328.969L302.353 300.453H309.042L300.985 336H296.566L296.64 328.969ZM290.878 300.453L297.958 329.286L298.373 336H294.32L286.776 306.483L287.069 300.453H290.878Z" fill="#838383"/>
</g>
</g>
<g id="Candado">
<circle id="Circulo del Candado" cx="99" cy="116" r="99" fill="#0088FF"/>
<g id="Candado Cerrado">
<path id="Vector" d="M121.107 101.25V88.9583C121.107 76.739 111.202 66.8333 98.9823 66.8333C86.763 66.8333 76.8573 76.739 76.8573 88.9583V101.25" stroke="white" stroke-width="10" stroke-linecap="round" stroke-linejoin="round"/>
<path id="Vector_2" d="M106.354 101.25H91.6073C80.1277 101.25 74.388 101.25 70.0432 103.572C66.6126 105.406 63.8029 108.216 61.9694 111.647C59.6473 115.992 59.6479 121.732 59.649 133.211C59.65 144.689 59.6505 150.428 61.9729 154.772C63.8066 158.202 66.6162 161.011 70.0464 162.845C74.3908 165.167 80.1296 165.167 91.6073 165.167H106.354C117.833 165.167 123.572 165.167 127.917 162.845C131.347 161.011 134.157 158.201 135.99 154.771C138.313 150.426 138.313 144.687 138.313 133.208C138.313 121.73 138.313 115.991 135.99 111.646C134.157 108.215 131.347 105.406 127.917 103.572C123.572 101.25 117.833 101.25 106.354 101.25Z" stroke="white" stroke-width="10" stroke-linecap="round"/>
<path id="Vector_3" d="M98.9823 143.042C104.413 143.042 108.816 138.639 108.816 133.208C108.816 127.778 104.413 123.375 98.9823 123.375C93.5515 123.375 89.1489 127.778 89.1489 133.208C89.1489 138.639 93.5515 143.042 98.9823 143.042Z" stroke="white" stroke-width="10"/>
</g>
<g id="Candado Abierto">
<path id="Vector_4" d="M98.9808 143.042C104.412 143.042 108.814 138.639 108.814 133.208C108.814 127.778 104.412 123.375 98.9808 123.375C93.55 123.375 89.1475 127.778 89.1475 133.208C89.1475 138.639 93.55 143.042 98.9808 143.042Z" stroke="white" stroke-width="10"/>
<path id="Vector_5" d="M76.8558 101.25V88.9583C76.8558 76.739 86.7615 66.8333 98.9809 66.8333C108.614 66.8333 115.61 72.99 118.648 81.5833" stroke="white" stroke-width="10" stroke-linecap="round" stroke-linejoin="round"/>
<path id="Vector_6" d="M106.353 101.25H91.6058C80.1263 101.25 74.3865 101.25 70.0417 103.572C66.6112 105.406 63.8015 108.216 61.968 111.647C59.6459 115.992 59.6465 121.732 59.6475 133.211C59.6486 144.689 59.6491 150.428 61.9715 154.772C63.8051 158.202 66.6148 161.011 70.045 162.845C74.3894 165.167 80.1282 165.167 91.6058 165.167H106.353C117.831 165.167 123.571 165.167 127.915 162.845C131.346 161.011 134.156 158.201 135.989 154.771C138.311 150.426 138.311 144.687 138.311 133.208C138.311 121.73 138.311 115.991 135.989 111.646C134.156 108.215 131.346 105.406 127.915 103.572C123.571 101.25 117.831 101.25 106.353 101.25Z" stroke="white" stroke-width="10" stroke-linecap="round"/>
</g>
</g>
<g id="Velocidad Dispositivo">
<path id="500 KM/H" d="M328.677 76.3732L321.831 77.1509L316.241 54.3575L340.12 45.6338L342.505 52.1625L325.155 58.501L327.725 69.0507C328.203 68.448 328.959 67.7436 329.994 66.9377C331.041 66.1045 332.31 65.4157 333.801 64.8711C335.867 64.116 337.839 63.7787 339.716 63.859C341.585 63.9195 343.315 64.3688 344.905 65.207C346.515 66.038 347.939 67.2524 349.176 68.8504C350.425 70.4213 351.464 72.3395 352.292 74.6052C353.018 76.5926 353.402 78.5697 353.445 80.5364C353.5 82.476 353.179 84.3394 352.48 86.1264C351.774 87.8936 350.658 89.4951 349.133 90.931C347.6 92.3469 345.612 93.5014 343.167 94.3944C341.319 95.0697 339.442 95.4512 337.537 95.539C335.644 95.5997 333.83 95.3502 332.094 94.7906C330.35 94.2112 328.788 93.2952 327.407 92.0427C326.045 90.7829 324.958 89.1639 324.145 87.1857L331.926 84.3431C332.552 85.6239 333.323 86.626 334.241 87.3495C335.159 88.0731 336.175 88.5126 337.291 88.6682C338.426 88.8166 339.62 88.662 340.872 88.2046C342.005 87.7908 342.902 87.2263 343.565 86.5113C344.24 85.7691 344.704 84.9124 344.957 83.9413C345.211 82.9702 345.274 81.9108 345.148 80.763C345.021 79.6153 344.73 78.4154 344.272 77.1634C343.829 75.951 343.277 74.9025 342.616 74.0177C341.948 73.113 341.171 72.4056 340.286 71.8953C339.402 71.385 338.42 71.1018 337.34 71.0456C336.281 70.9821 335.135 71.1754 333.903 71.6256C332.253 72.2282 331.072 72.9413 330.359 73.7649C329.666 74.5812 329.105 75.4507 328.677 76.3732ZM383.947 53.9047L385.815 61.4529C386.668 64.9035 387.049 67.9373 386.955 70.5543C386.862 73.1713 386.351 75.4229 385.422 77.3092C384.489 79.1749 383.2 80.7036 381.555 81.8954C379.905 83.0666 377.96 83.9292 375.721 84.4832C373.935 84.9254 372.215 85.1111 370.563 85.0404C368.905 84.9492 367.341 84.5734 365.87 83.913C364.414 83.227 363.056 82.2333 361.797 80.9319C360.558 79.6254 359.441 77.9729 358.445 75.9742C357.47 73.9705 356.642 71.5925 355.961 68.8402L354.093 61.292C353.239 57.8413 352.861 54.8178 352.96 52.2214C353.079 49.6198 353.605 47.3862 354.539 45.5205C355.472 43.6547 356.766 42.1465 358.422 40.9959C360.072 39.8247 362.016 38.9621 364.255 38.4081C366.062 37.9608 367.782 37.7751 369.414 37.8508C371.066 37.9215 372.617 38.2896 374.068 38.9551C375.534 39.595 376.887 40.5681 378.126 41.8746C379.359 43.1605 380.464 44.8053 381.439 46.8091C382.43 48.7872 383.266 51.1524 383.947 53.9047ZM377.955 64.5747L375.531 54.7774C375.104 53.0521 374.631 51.5781 374.11 50.3555C373.605 49.1072 373.056 48.077 372.462 47.2647C371.869 46.4525 371.227 45.8377 370.535 45.4204C369.838 44.9825 369.097 44.719 368.312 44.6299C367.527 44.5407 366.703 44.6029 365.841 44.8164C364.773 45.0806 363.871 45.5326 363.135 46.1723C362.395 46.7915 361.849 47.6241 361.498 48.6702C361.146 49.7162 361.002 51.027 361.065 52.6026C361.143 54.1526 361.447 55.9957 361.975 58.1318L364.399 67.929C364.826 69.6544 365.292 71.1411 365.797 72.3894C366.323 73.6325 366.885 74.6705 367.483 75.5033C368.102 76.331 368.753 76.9766 369.434 77.4401C370.131 77.878 370.874 78.1517 371.664 78.2614C372.449 78.3505 373.273 78.2884 374.136 78.0749C375.224 77.8055 376.126 77.3535 376.841 76.7189C377.576 76.0792 378.117 75.2261 378.464 74.1595C378.805 73.0724 378.934 71.7436 378.85 70.173C378.782 68.5769 378.484 66.7107 377.955 64.5747ZM421.016 48.2441L422.12 55.9412C422.625 59.4598 422.7 62.5164 422.346 65.111C421.991 67.7055 421.258 69.8949 420.146 71.679C419.031 73.4421 417.595 74.8344 415.839 75.8559C414.081 76.8564 412.06 77.5204 409.777 77.848C407.955 78.1094 406.225 78.1224 404.588 77.8871C402.948 77.6307 401.429 77.1005 400.031 76.2964C398.651 75.4684 397.4 74.3441 396.277 72.9234C395.175 71.4997 394.228 69.7438 393.437 67.6557C392.667 65.5645 392.08 63.1157 391.678 60.3091L390.573 52.6121C390.068 49.0934 389.995 46.0473 390.352 43.4737C390.731 40.8971 391.477 38.7272 392.592 36.964C393.707 35.2009 395.146 33.8295 396.908 32.8499C398.667 31.8494 400.687 31.1854 402.97 30.8578C404.814 30.5934 406.543 30.5804 408.159 30.8188C409.796 31.0541 411.303 31.5754 412.68 32.3825C414.075 33.1656 415.323 34.269 416.425 35.6927C417.524 37.0954 418.459 38.8423 419.229 40.9335C420.018 43.0007 420.613 45.4376 421.016 48.2441ZM413.988 58.2622L412.555 48.2717C412.303 46.5124 411.978 44.9985 411.583 43.73C411.205 42.4375 410.761 41.3576 410.252 40.4901C409.743 39.6227 409.165 38.9468 408.518 38.4624C407.869 37.9571 407.158 37.6209 406.386 37.4538C405.614 37.2867 404.788 37.2663 403.908 37.3925C402.819 37.5487 401.877 37.9084 401.081 38.4714C400.282 39.0135 399.656 39.7874 399.202 40.7931C398.747 41.7988 398.473 43.0887 398.378 44.6627C398.301 46.2128 398.419 48.0769 398.732 50.2551L400.165 60.2456C400.418 62.0049 400.733 63.5308 401.111 64.8232C401.509 66.1127 401.965 67.2016 402.477 68.09C403.01 68.9754 403.593 69.6827 404.224 70.212C404.874 70.7173 405.586 71.064 406.362 71.252C407.134 71.4191 407.96 71.4395 408.839 71.3133C409.949 71.1541 410.892 70.7944 411.666 70.2344C412.462 69.6713 413.085 68.8765 413.536 67.8498C413.985 66.8023 414.246 65.493 414.32 63.922C414.411 62.327 414.301 60.4404 413.988 58.2622ZM454.018 27.4374L454.021 73.6484L445.293 73.649L445.289 27.438L454.018 27.4374ZM481.757 27.4355L463.223 49.9709L452.623 61.3023L451.068 52.8283L458.43 43.2745L471.061 27.4362L481.757 27.4355ZM472.048 73.6471L457.669 52.0026L463.921 46.3527L482.427 73.6464L472.048 73.6471ZM493.107 28.6473L500.601 29.5936L508.776 65.6872L525.635 32.7546L533.16 33.7049L510.336 77.4007L504.322 76.6413L493.107 28.6473ZM489.329 28.1702L496.665 29.0966L493.984 60.9722L492.199 75.1105L483.539 74.017L489.329 28.1702ZM529.571 33.2516L536.939 34.182L531.15 80.0289L522.49 78.9355L524.276 64.7972L529.571 33.2516ZM566.819 40.7149L538.127 85.4289L531.924 83.9391L560.616 39.2251L566.819 40.7149ZM596.929 71.2295L594.663 77.6995L571.718 69.6624L573.985 63.1924L596.929 71.2295ZM582.537 45.9771L567.26 89.5898L559.023 86.7044L574.3 43.0917L582.537 45.9771ZM609.346 55.3676L594.069 98.9804L585.832 96.095L601.108 52.4823L609.346 55.3676Z" fill="white"/>
</g>
<g id="Bateria Dispositivo">
<path id="Barra de bateria" d="M679.82 326.5C680.24 326.5 679.19 326.5 679.264 326.499C690.199 326.418 699.877 315.908 699.059 305.004C699.054 304.93 699.248 307.281 699.17 306.341C694.494 249.674 670.218 196.248 630.291 155.734C585.658 110.444 525.122 85 462 85C398.878 85 338.342 110.444 293.709 155.734C253.782 196.248 229.506 249.674 224.83 306.341C224.752 307.281 224.947 304.929 224.941 305.004C224.123 315.908 233.801 326.418 244.736 326.499C244.81 326.5 243.76 326.5 244.18 326.5V326.5C244.935 326.5 245.313 326.5 245.379 326.5C256.314 326.427 263.98 319.486 265.135 308.612C265.142 308.546 265.214 307.815 265.36 306.352C269.915 260.564 289.893 217.523 322.248 184.693C359.312 147.083 409.583 125.954 462 125.954C514.417 125.954 564.688 147.083 601.752 184.693C634.107 217.523 654.085 260.564 658.64 306.352C658.786 307.815 658.858 308.546 658.865 308.612C660.02 319.486 667.686 326.427 678.621 326.5C678.687 326.5 679.065 326.5 679.82 326.5V326.5Z" fill="#838383" fill-opacity="0.34"/>
</g>
</g>
</svg>
